<?xml version="1.0" encoding="UTF-8" standalone="no"?>
<svg width="52px" height="52px" viewBox="0 0 52 52" version="1.1" xmlns="http://www.w3.org/2000/svg" xmlns:xlink="http://www.w3.org/1999/xlink">
    <!-- Generator: Sketch 3.7.2 (28276) - http://www.bohemiancoding.com/sketch -->
    <title>Pointer</title>
    <desc>Created with Sketch.</desc>
    <defs></defs>
    <g id="MainView" stroke="none" stroke-width="1" fill="none" fill-rule="evenodd">
        <g id="PickMyBrain--New" transform="translate(-215.000000, -192.000000)">
            <g id="thoughtBubble" transform="translate(47.000000, 126.000000)">
                <g id="Pointer" transform="translate(168.000000, 66.000000)">
                    <circle id="Oval-13" fill="#07939E" cx="26" cy="26" r="26"></circle>
                    <path d="M30.3404976,23.8244396 C30.3278825,23.8656032 30.3151818,23.9068561 30.3023303,23.9481388 C27.6623521,24.624592 23.4129918,25.8353237 18.6206153,25.8353237 C10.6124865,25.8353237 9.12061534,24.4546118 9.12061534,25.8353237 C9.12061534,27.2160356 10.1206153,27.8353237 18.6206153,29.8353237 C19.8097998,30.1151318 20.9500514,30.2262333 22.0317859,30.2065761 C21.4658519,30.9262167 21.1206153,31.7791281 21.1206153,32.8353237 C21.1206153,33.9194713 22.8283851,33.8458925 23.1206153,34.8353237 C23.4192661,35.8464936 23.1206153,37.8353237 26.1206153,37.8353237 C29.1206153,37.8353237 30.2375982,34.8353237 34.1206153,34.8353237 C38.216897,34.8353237 38.6418963,28.9249967 36.6218156,25.0746595 C36.5086832,24.8220916 36.3451621,24.5489418 36.136008,24.26038 C35.788303,23.7471743 35.3900723,23.2907694 34.9451701,22.9162167 C33.8761399,21.878026 32.4060705,20.7582234 30.6936079,19.7292721 C26.6697043,17.3114669 26.3509666,13.5947445 25.6398475,14.7782455 C24.9287283,15.9617466 25.0293844,20.6277508 29.0532881,23.0455561 C29.4964215,23.3118175 29.9259687,23.57265 30.3404976,23.8244396 Z" id="Combined-Shape" fill="#FFFFFF" transform="translate(23.459445, 26.193394) rotate(-41.000000) translate(-23.459445, -26.193394) "></path>
                </g>
            </g>
        </g>
    </g>
</svg>