<?xml version="1.0" encoding="UTF-8" standalone="no"?>
<svg viewBox="0 0 177 14" version="1.1" xmlns="http://www.w3.org/2000/svg" xmlns:xlink="http://www.w3.org/1999/xlink">
    <!-- Generator: Sketch 3.7.2 (28276) - http://www.bohemiancoding.com/sketch -->
    <title>Path 44</title>
    <desc>Created with Sketch.</desc>
    <defs></defs>
    <g id="MainView" stroke="none" stroke-width="1" fill="none" fill-rule="evenodd" stroke-linecap="round">
        <g id="Tablet-Portrait" transform="translate(-500.000000, -669.000000)" stroke="#FFFFFF" stroke-width="5">
            <path d="M503,675.484789 C503,675.484789 509.71605,672.072216 513,672.072216 C517.203967,672.072216 515,683.772467 526,678.897362 C537,674.022258 546.457717,672.072216 551,672.072216 C555.351022,672.072216 557.702044,679.384873 562,679.384873 C565.139805,679.384873 570,672.072216 581,672.072216 C592,672.072216 595.988868,677.922341 598,677.922341 C614,677.922341 605,673.047236 620,672.072216 C635,671.097195 625,680.359894 638,677.922341 C651,675.484789 657.743519,673.047237 661,673.047237 C665.861331,673.047237 674.353436,675.484789 674.353436,675.484789" id="Path-44"></path>
        </g>
    </g>
</svg>